<svg id="SvgjsSvg1001" width="288" height="288" xmlns="http://www.w3.org/2000/svg" version="1.1" xmlns:xlink="http://www.w3.org/1999/xlink" xmlns:svgjs="http://svgjs.com/svgjs"><defs id="SvgjsDefs1002"></defs><g id="SvgjsG1008"><svg xmlns="http://www.w3.org/2000/svg" fill="none" viewBox="0 0 31 53" width="288" height="288"><path fill="url(#a)" d="M30.5 39.7331L15.5605 47.2028L0.807667 39.7331L0.807667 45.3354L15.5605 52.8052L30.5 45.3354L30.5 39.7331ZM30.5 -8.07347L15.5605 -0.790452L0.807669 -8.07347L0.807669 -2.47114L15.5605 4.81187L30.5 -2.47114L30.5 -8.07347ZM30.5 7.7998L15.5605 15.2696L0.807668 7.7998L0.807668 13.4021L15.5605 20.8719L30.5 13.4021L30.5 7.7998ZM30.5 23.8598L15.5605 31.3296L0.807668 23.8598L0.807667 29.4621L15.5605 36.9319L30.5 29.4621L30.5 23.8598ZM30.5 -56.0668L15.5605 -48.597L0.807671 -56.0668L0.807671 -50.4644L15.5605 -42.9947L30.5 -50.4644L30.5 -56.0668ZM15.5605 -80.5302L0.807673 -88L0.807672 -82.3977L15.5605 -74.9279L30.5 -82.3977L30.5 -88L15.5605 -80.5302ZM30.5 -24.1335L15.5605 -16.6637L0.620914 -24.1335L0.620913 -18.5312L15.5605 -11.0614L30.5 -18.5312L30.5 -24.1335ZM30.5 -71.94L15.5605 -64.657L0.620916 -71.94L0.620915 -66.3377L15.5605 -59.0546L30.5 -66.3377L30.5 -71.94ZM30.5 -40.0068L15.5605 -32.537L0.620914 -40.0068L0.620914 -34.4044L15.5605 -26.9347L30.5 -34.4044L30.5 -40.0068Z"></path><defs><linearGradient id="a" x1="30.508" x2="30.508" y1="52.858" y2="-88.099" gradientUnits="userSpaceOnUse"><stop stop-color="#2a63c3" class="stopColor2A63C3 svgShape"></stop><stop offset=".165" stop-color="#2a63c3" stop-opacity=".2" class="stopColor2A63C3 svgShape"></stop><stop offset=".34" stop-color="#2a63c3" stop-opacity="0" class="stopColor2A63C3 svgShape"></stop></linearGradient></defs></svg></g></svg>